# xmcd
#
# Track frame offsets:
#	150
#	12807
#	27905
#	44230
#	60620
#	72187
#	93140
#	106135
#	117080
#	130242
#	148965
#	166482
#	184292
#	202590
#
# Disc length: 2936 seconds
#
# Revision: 1
# Processed by: cddbd v1.4PL0 Copyright (c) Steve Scherf et al.
# Submitted via: audiograbber 1.81.02
#
DISCID=c00b760e
DTITLE=Roto Noto - POWERPLAY
DYEAR=1995
DGENRE=Country/Lite Rock
TTITLE0=Jett - Real Love
TTITLE1=Kiley Joe Masson - Honky Tonk Heaven
TTITLE2=Mary Beth Sippin - Back In My Hometown
TTITLE3=Micheal Terry - Coyote Moon
TTITLE4=Annette Lightheart - Trouble With A Capital T
TTITLE5=The Barncats - (You Treat Me) Like A Cigarette
TTITLE6=Lauren Cook - Dance It Off
TTITLE7=The Ghost Rockets - In my Room
TTITLE8=Teddy Seals - A Horse No Man Can Ride
TTITLE9=Rebecca - He's Got One Face (You've Got Two)
TTITLE10=Lisa Logan - Some Kind Of Night
TTITLE11=Shade Stone - You're My Life
TTITLE12=Trial Mile - Forever
TTITLE13=Mark Severn - In my Arms
EXTD=
EXTT0=
EXTT1=
EXTT2=
EXTT3=
EXTT4=
EXTT5=
EXTT6=
EXTT7=
EXTT8=
EXTT9=
EXTT10=
EXTT11=
EXTT12=
EXTT13=
PLAYORDER=
